<svg width="512" height="512" viewBox="0 0 512 512" fill="none" xmlns="http://www.w3.org/2000/svg">
  <rect width="512" height="512" rx="64" fill="#3b82f6"/>
  <path d="M128 170.67h256c23.56 0 42.67 19.11 42.67 42.67v128c0 23.56-19.11 42.67-42.67 42.67H128c-23.56 0-42.67-19.11-42.67-42.67V213.33c0-23.56 19.11-42.67 42.67-42.67z" fill="white"/>
  <path d="M128 192h256c11.78 0 21.33 9.55 21.33 21.33v85.33c0 11.78-9.55 21.33-21.33 21.33H128c-11.78 0-21.33-9.55-21.33-21.33V213.33c0-11.78 9.55-21.33 21.33-21.33z" fill="#3b82f6"/>
  <circle cx="256" cy="256" r="21.33" fill="white"/>
  <path d="M234.67 234.67h42.67v42.67H234.67z" fill="#3b82f6"/>
</svg>
